# xmcd
#
# Track frame offsets: 
#        150
#        19373
#        34398
#        49923
#        67513
#        88630
#        106080
#        123975
#        140845
#        154753
#        177095
#        192405
#        208838
#        226048
#
# Disc length: 3272 seconds
#
# Revision: 17
# Processed by: cddbd v1.5.2PL0 Copyright (c) Steve Scherf et al.
# Submitted via: ExactAudioCopy v1.0b1
#
DISCID=bc0cc60e
DTITLE=Tim McGraw - A Place In The Sun
DYEAR=1999
DGENRE=Country
TTITLE0=The Trouble With Never
TTITLE1=Seventeen
TTITLE2=She'll Have You Back
TTITLE3=Somebody Must Be Prayin' For Me
TTITLE4=My Best Friend
TTITLE5=Señorita Margarita
TTITLE6=Some Things Never Change
TTITLE7=You Don't Love Me Anymore
TTITLE8=Something Like That
TTITLE9=Please Remember Me
TTITLE10=Carry On
TTITLE11=My Next Thirty Years
TTITLE12=Eyes Of A Woman
TTITLE13=A Place In The Sun
EXTD=YEAR: 1999
EXTT0=
EXTT1=
EXTT2=
EXTT3=
EXTT4=
EXTT5=
EXTT6=
EXTT7=
EXTT8=
EXTT9=
EXTT10=
EXTT11=
EXTT12=
EXTT13=
PLAYORDER=
